<svg xmlns="http://www.w3.org/2000/svg" width="512" height="360" viewBox="0 0 512 360">
    
    <defs>
      <linearGradient id="sky" x1="0" y1="0" x2="0" y2="1">
        <stop offset="0%" stop-color="#e7fbff"/>
        <stop offset="62%" stop-color="#ffffff"/>
        <stop offset="100%" stop-color="#fff3c7"/>
      </linearGradient>
      <linearGradient id="ground" x1="0" y1="0" x2="1" y2="1">
        <stop offset="0%" stop-color="#80d6c8" stop-opacity=".35"/>
        <stop offset="100%" stop-color="#ffffff" stop-opacity=".88"/>
      </linearGradient>
      <filter id="shadow" x="-20%" y="-20%" width="140%" height="150%">
        <feDropShadow dx="0" dy="8" stdDeviation="7" flood-color="#2c5f7d" flood-opacity=".20"/>
      </filter>
    </defs>
    <rect width="512" height="360" rx="36" fill="url(#sky)"/>
    <circle cx="430" cy="72" r="42" fill="#ffd76d" opacity=".65"/>
    <path d="M0 276 C90 244 154 302 244 270 C326 240 405 264 512 236 L512 360 L0 360 Z" fill="url(#ground)"/>
    
    
    <rect x="38" y="24" width="230" height="68" rx="20" fill="#ffffff" opacity=".82"/>
    <text x="58" y="52" font-size="20" fill="#087c8b" font-weight="900">番禺校区</text>
    <text x="58" y="78" font-size="24" fill="#203145" font-weight="900">番禺图书馆</text>
    
    
        <g filter="url(#shadow)">
          <path d="M112 202 L256 106 L400 202 Z" fill="#318a78" stroke="#263238" stroke-width="5"/>
          <rect x="134" y="202" width="244" height="132" rx="14" fill="#fffdf1" stroke="#263238" stroke-width="5"/>
          <rect x="164" y="230" width="36" height="74" rx="7" fill="#80d6c8" opacity=".82"/>
          <rect x="220" y="230" width="36" height="74" rx="7" fill="#80d6c8" opacity=".82"/>
          <rect x="276" y="230" width="36" height="74" rx="7" fill="#80d6c8" opacity=".82"/>
          <rect x="332" y="230" width="22" height="74" rx="7" fill="#80d6c8" opacity=".62"/>
          <rect x="146" y="313" width="220" height="10" rx="5" fill="#d7c7a7"/>
          <text x="256" y="190" font-size="24" fill="#45525b" text-anchor="middle" font-weight="900">LIBRARY</text>
        </g>
        
    </svg>