<svg xmlns="http://www.w3.org/2000/svg" width="512" height="360" viewBox="0 0 512 360">
    
    <defs>
      <linearGradient id="sky" x1="0" y1="0" x2="0" y2="1">
        <stop offset="0%" stop-color="#e7fbff"/>
        <stop offset="62%" stop-color="#ffffff"/>
        <stop offset="100%" stop-color="#fff3c7"/>
      </linearGradient>
      <linearGradient id="ground" x1="0" y1="0" x2="1" y2="1">
        <stop offset="0%" stop-color="#96c7ff" stop-opacity=".35"/>
        <stop offset="100%" stop-color="#ffffff" stop-opacity=".88"/>
      </linearGradient>
      <filter id="shadow" x="-20%" y="-20%" width="140%" height="150%">
        <feDropShadow dx="0" dy="8" stdDeviation="7" flood-color="#2c5f7d" flood-opacity=".20"/>
      </filter>
    </defs>
    <rect width="512" height="360" rx="36" fill="url(#sky)"/>
    <circle cx="430" cy="72" r="42" fill="#ffd76d" opacity=".65"/>
    <path d="M0 276 C90 244 154 302 244 270 C326 240 405 264 512 236 L512 360 L0 360 Z" fill="url(#ground)"/>
    
    
    <rect x="38" y="24" width="230" height="68" rx="20" fill="#ffffff" opacity=".82"/>
    <text x="58" y="52" font-size="20" fill="#087c8b" font-weight="900">番禺校区</text>
    <text x="58" y="78" font-size="24" fill="#203145" font-weight="900">教学楼群</text>
    
    
        <g filter="url(#shadow)">
          <rect x="108" y="164" width="296" height="158" rx="18" fill="#fffdf1" stroke="#263238" stroke-width="5"/>
          <rect x="92" y="144" width="328" height="30" rx="10" fill="#5a79c8" stroke="#263238" stroke-width="5"/>
          <rect x="136" y="196" width="40" height="30" rx="6" fill="#96c7ff" opacity=".80"/>
          <rect x="202" y="196" width="40" height="30" rx="6" fill="#96c7ff" opacity=".80"/>
          <rect x="268" y="196" width="40" height="30" rx="6" fill="#96c7ff" opacity=".80"/>
          <rect x="334" y="196" width="40" height="30" rx="6" fill="#96c7ff" opacity=".80"/>
          <rect x="136" y="252" width="40" height="30" rx="6" fill="#96c7ff" opacity=".72"/>
          <rect x="202" y="252" width="40" height="30" rx="6" fill="#96c7ff" opacity=".72"/>
          <rect x="268" y="252" width="40" height="30" rx="6" fill="#96c7ff" opacity=".72"/>
          <rect x="334" y="252" width="40" height="30" rx="6" fill="#96c7ff" opacity=".72"/>
        </g>
        
    </svg>