<svg xmlns="http://www.w3.org/2000/svg" width="512" height="360" viewBox="0 0 512 360">
    
    <defs>
      <linearGradient id="sky" x1="0" y1="0" x2="0" y2="1">
        <stop offset="0%" stop-color="#e7fbff"/>
        <stop offset="62%" stop-color="#ffffff"/>
        <stop offset="100%" stop-color="#fff3c7"/>
      </linearGradient>
      <linearGradient id="ground" x1="0" y1="0" x2="1" y2="1">
        <stop offset="0%" stop-color="#ffb0c9" stop-opacity=".35"/>
        <stop offset="100%" stop-color="#ffffff" stop-opacity=".88"/>
      </linearGradient>
      <filter id="shadow" x="-20%" y="-20%" width="140%" height="150%">
        <feDropShadow dx="0" dy="8" stdDeviation="7" flood-color="#2c5f7d" flood-opacity=".20"/>
      </filter>
    </defs>
    <rect width="512" height="360" rx="36" fill="url(#sky)"/>
    <circle cx="430" cy="72" r="42" fill="#ffd76d" opacity=".65"/>
    <path d="M0 276 C90 244 154 302 244 270 C326 240 405 264 512 236 L512 360 L0 360 Z" fill="url(#ground)"/>
    
    
    <rect x="38" y="24" width="230" height="68" rx="20" fill="#ffffff" opacity=".82"/>
    <text x="58" y="52" font-size="20" fill="#087c8b" font-weight="900">珠海校区</text>
    <text x="58" y="78" font-size="24" fill="#203145" font-weight="900">校园牌坊</text>
    
    
        <g filter="url(#shadow)">
          <rect x="92" y="220" width="328" height="40" rx="12" fill="#ffffff" stroke="#263238" stroke-width="5"/>
          <path d="M128 222 Q256 100 384 222" fill="none" stroke="#ffffff" stroke-width="46" stroke-linecap="round"/>
          <path d="M128 222 Q256 100 384 222" fill="none" stroke="#cad4db" stroke-width="7" stroke-linecap="round"/>
          <path d="M166 223 L214 172 L252 223 Z" fill="#cc6a88" stroke="#263238" stroke-width="5"/>
          <path d="M260 223 L300 170 L350 223 Z" fill="#cc6a88" stroke="#263238" stroke-width="5"/>
          <text x="256" y="190" font-size="25" fill="#4d565c" text-anchor="middle" font-weight="900">校园牌坊</text>
        </g>
        
    </svg>